<svg width="150" height="36" viewBox="0 0 150 36" fill="none" xmlns="http://www.w3.org/2000/svg">
<rect width="1280" height="832" transform="translate(-53 -45)" fill="#F1F3E4"/>
<g filter="url(#filter0_d_28_55)">
<path d="M-23 -16C-23 -22.0751 -18.0751 -27 -12 -27H165C171.075 -27 176 -22.0751 176 -16V743C176 749.075 171.075 754 165 754H-12C-18.0751 754 -23 749.075 -23 743V-16Z" fill="white"/>
</g>
<path d="M50.056 9.248V11.96H45.592V26H42.232V11.96H37.768V9.248H50.056ZM49.7236 19.304C49.7236 17.96 49.9876 16.768 50.5156 15.728C51.0596 14.688 51.7876 13.888 52.6996 13.328C53.6276 12.768 54.6596 12.488 55.7956 12.488C56.7876 12.488 57.6516 12.688 58.3876 13.088C59.1396 13.488 59.7396 13.992 60.1876 14.6V12.704H63.5716V26H60.1876V24.056C59.7556 24.68 59.1556 25.2 58.3876 25.616C57.6356 26.016 56.7636 26.216 55.7716 26.216C54.6516 26.216 53.6276 25.928 52.6996 25.352C51.7876 24.776 51.0596 23.968 50.5156 22.928C49.9876 21.872 49.7236 20.664 49.7236 19.304ZM60.1876 19.352C60.1876 18.536 60.0276 17.84 59.7076 17.264C59.3876 16.672 58.9556 16.224 58.4116 15.92C57.8676 15.6 57.2836 15.44 56.6596 15.44C56.0356 15.44 55.4596 15.592 54.9316 15.896C54.4036 16.2 53.9716 16.648 53.6356 17.24C53.3156 17.816 53.1556 18.504 53.1556 19.304C53.1556 20.104 53.3156 20.808 53.6356 21.416C53.9716 22.008 54.4036 22.464 54.9316 22.784C55.4756 23.104 56.0516 23.264 56.6596 23.264C57.2836 23.264 57.8676 23.112 58.4116 22.808C58.9556 22.488 59.3876 22.04 59.7076 21.464C60.0276 20.872 60.1876 20.168 60.1876 19.352ZM70.0212 26.216C68.9332 26.216 67.9572 26.024 67.0932 25.64C66.2292 25.24 65.5412 24.704 65.0292 24.032C64.5332 23.36 64.2612 22.616 64.2132 21.8H67.5972C67.6612 22.312 67.9092 22.736 68.3412 23.072C68.7892 23.408 69.3412 23.576 69.9972 23.576C70.6372 23.576 71.1332 23.448 71.4852 23.192C71.8532 22.936 72.0372 22.608 72.0372 22.208C72.0372 21.776 71.8132 21.456 71.3652 21.248C70.9332 21.024 70.2372 20.784 69.2772 20.528C68.2852 20.288 67.4692 20.04 66.8292 19.784C66.2052 19.528 65.6612 19.136 65.1972 18.608C64.7492 18.08 64.5252 17.368 64.5252 16.472C64.5252 15.736 64.7332 15.064 65.1492 14.456C65.5812 13.848 66.1892 13.368 66.9732 13.016C67.7732 12.664 68.7092 12.488 69.7812 12.488C71.3652 12.488 72.6292 12.888 73.5732 13.688C74.5172 14.472 75.0372 15.536 75.1332 16.88H71.9172C71.8692 16.352 71.6452 15.936 71.2452 15.632C70.8612 15.312 70.3412 15.152 69.6852 15.152C69.0772 15.152 68.6052 15.264 68.2692 15.488C67.9492 15.712 67.7892 16.024 67.7892 16.424C67.7892 16.872 68.0132 17.216 68.4612 17.456C68.9092 17.68 69.6052 17.912 70.5492 18.152C71.5092 18.392 72.3012 18.64 72.9252 18.896C73.5492 19.152 74.0852 19.552 74.5332 20.096C74.9972 20.624 75.2372 21.328 75.2532 22.208C75.2532 22.976 75.0372 23.664 74.6052 24.272C74.1892 24.88 73.5812 25.36 72.7812 25.712C71.9972 26.048 71.0772 26.216 70.0212 26.216ZM83.9633 26L79.4513 20.336V26H76.0913V8.24H79.4513V18.344L83.9153 12.704H88.2833L82.4273 19.376L88.3313 26H83.9633Z" fill="#746C77"/>
<path d="M95.568 26.12C94.976 26.12 94.552 25.992 94.296 25.736C94.04 25.464 93.912 24.96 93.912 24.224C93.912 23.728 93.96 23.096 94.056 22.328C94.168 21.544 94.344 20.472 94.584 19.112C95 16.6 95.328 14.424 95.568 12.584C95.712 11.432 95.784 10.472 95.784 9.704C95.784 8.984 95.52 8.624 94.992 8.624C94.576 8.624 94.072 8.84 93.48 9.272C92.904 9.688 92.264 10.36 91.56 11.288C91.336 11.592 91.088 11.744 90.816 11.744C90.592 11.744 90.392 11.64 90.216 11.432C90.056 11.208 89.976 10.96 89.976 10.688C89.976 10.432 90.024 10.176 90.12 9.92C90.232 9.648 90.408 9.344 90.648 9.008C91.416 7.936 92.272 7.112 93.216 6.536C94.16 5.944 95.104 5.648 96.048 5.648C96.928 5.648 97.6 5.928 98.064 6.488C98.544 7.048 98.784 7.864 98.784 8.936C98.784 9.368 98.744 9.88 98.664 10.472C98.584 11.048 98.512 11.52 98.448 11.888C98.384 12.256 98.336 12.512 98.304 12.656C99.216 10.048 100.24 8.232 101.376 7.208C102.512 6.168 103.76 5.648 105.12 5.648C106.16 5.648 106.976 6.016 107.568 6.752C108.176 7.488 108.48 8.528 108.48 9.872C108.48 10.4 108.408 11.056 108.264 11.84C109.064 9.632 110 8.048 111.072 7.088C112.144 6.128 113.376 5.648 114.768 5.648C115.888 5.648 116.744 6.008 117.336 6.728C117.944 7.448 118.248 8.456 118.248 9.752C118.248 10.456 118.144 11.312 117.936 12.32L116.472 19.184C116.312 19.984 116.232 20.672 116.232 21.248C116.232 21.92 116.384 22.424 116.688 22.76C117.008 23.096 117.448 23.264 118.008 23.264C118.536 23.264 119.048 23.088 119.544 22.736C120.056 22.384 120.656 21.8 121.344 20.984C121.536 20.76 121.752 20.648 121.992 20.648C122.2 20.648 122.36 20.744 122.472 20.936C122.6 21.128 122.664 21.392 122.664 21.728C122.664 22.352 122.512 22.848 122.208 23.216C121.376 24.224 120.552 24.96 119.736 25.424C118.92 25.888 118.064 26.12 117.168 26.12C115.808 26.12 114.744 25.72 113.976 24.92C113.208 24.104 112.824 23.016 112.824 21.656C112.824 20.712 113.016 19.344 113.4 17.552L114.36 13.16C114.392 13.016 114.448 12.76 114.528 12.392C114.608 12.024 114.672 11.68 114.72 11.36C114.768 11.024 114.792 10.696 114.792 10.376C114.792 9.816 114.68 9.4 114.456 9.128C114.248 8.84 113.944 8.696 113.544 8.696C112.792 8.696 112 9.184 111.168 10.16C110.352 11.12 109.568 12.72 108.816 14.96C108.08 17.2 107.48 20.112 107.016 23.696C106.904 24.656 106.704 25.304 106.416 25.64C106.144 25.96 105.696 26.12 105.072 26.12C104.528 26.12 104.128 25.992 103.872 25.736C103.632 25.48 103.512 25 103.512 24.296C103.512 23.64 103.6 22.784 103.776 21.728C103.952 20.656 104.176 19.4 104.448 17.96C105.184 14.088 105.552 11.592 105.552 10.472C105.552 9.864 105.432 9.416 105.192 9.128C104.968 8.84 104.624 8.696 104.16 8.696C103.376 8.696 102.568 9.144 101.736 10.04C100.904 10.92 100.088 12.496 99.288 14.768C98.504 17.024 97.848 20.08 97.32 23.936C97.208 24.752 97.04 25.32 96.816 25.64C96.608 25.96 96.192 26.12 95.568 26.12ZM121.762 26.12C120.77 26.12 119.978 25.76 119.386 25.04C118.794 24.32 118.498 23.376 118.498 22.208C118.498 20.928 118.794 19.72 119.386 18.584C119.978 17.432 120.762 16.512 121.738 15.824C122.73 15.12 123.778 14.768 124.882 14.768C125.234 14.768 125.466 14.84 125.578 14.984C125.706 15.112 125.81 15.352 125.89 15.704C126.226 15.64 126.578 15.608 126.946 15.608C127.73 15.608 128.122 15.888 128.122 16.448C128.122 16.784 128.002 17.584 127.762 18.848C127.394 20.688 127.21 21.968 127.21 22.688C127.21 22.928 127.266 23.12 127.378 23.264C127.506 23.408 127.666 23.48 127.858 23.48C128.162 23.48 128.53 23.288 128.962 22.904C129.394 22.504 129.978 21.864 130.714 20.984C130.906 20.76 131.122 20.648 131.362 20.648C131.57 20.648 131.73 20.744 131.842 20.936C131.97 21.128 132.034 21.392 132.034 21.728C132.034 22.368 131.882 22.864 131.578 23.216C130.922 24.032 130.226 24.72 129.49 25.28C128.754 25.84 128.042 26.12 127.354 26.12C126.826 26.12 126.338 25.944 125.89 25.592C125.458 25.224 125.13 24.728 124.906 24.104C124.074 25.448 123.026 26.12 121.762 26.12ZM122.626 23.696C122.978 23.696 123.314 23.488 123.634 23.072C123.954 22.656 124.186 22.104 124.33 21.416L125.218 17C124.546 17.016 123.922 17.272 123.346 17.768C122.786 18.248 122.338 18.888 122.002 19.688C121.666 20.488 121.498 21.336 121.498 22.232C121.498 22.728 121.594 23.096 121.786 23.336C121.994 23.576 122.274 23.696 122.626 23.696ZM138.868 20.648C139.076 20.648 139.236 20.744 139.348 20.936C139.476 21.128 139.54 21.392 139.54 21.728C139.54 22.368 139.388 22.864 139.084 23.216C138.396 24.064 137.644 24.76 136.828 25.304C136.012 25.848 135.076 26.12 134.02 26.12C130.756 26.12 129.124 23.824 129.124 19.232C129.124 18.528 129.148 17.816 129.196 17.096H128.26C127.78 17.096 127.452 17.008 127.276 16.832C127.116 16.656 127.036 16.376 127.036 15.992C127.036 15.096 127.396 14.648 128.116 14.648H129.484C129.756 12.888 130.172 11.28 130.732 9.824C131.292 8.368 131.964 7.208 132.748 6.344C133.548 5.48 134.404 5.048 135.316 5.048C135.988 5.048 136.516 5.344 136.9 5.936C137.284 6.528 137.476 7.272 137.476 8.168C137.476 10.648 136.436 12.808 134.356 14.648H137.044C137.3 14.648 137.484 14.704 137.596 14.816C137.708 14.928 137.764 15.136 137.764 15.44C137.764 16.544 136.86 17.096 135.052 17.096H132.124C132.092 17.896 132.076 18.52 132.076 18.968C132.076 20.632 132.268 21.8 132.652 22.472C133.052 23.144 133.676 23.48 134.524 23.48C135.212 23.48 135.82 23.272 136.348 22.856C136.876 22.44 137.5 21.816 138.22 20.984C138.412 20.76 138.628 20.648 138.868 20.648ZM134.668 7.352C134.428 7.352 134.156 7.656 133.852 8.264C133.564 8.856 133.284 9.688 133.012 10.76C132.756 11.816 132.54 12.992 132.364 14.288C133.308 13.472 134.012 12.56 134.476 11.552C134.956 10.528 135.196 9.6 135.196 8.768C135.196 7.824 135.02 7.352 134.668 7.352ZM144.257 21.368C144.465 21.368 144.625 21.464 144.737 21.656C144.865 21.848 144.929 22.112 144.929 22.448C144.929 23.024 144.793 23.52 144.521 23.936C144.073 24.624 143.481 25.16 142.745 25.544C142.025 25.928 141.161 26.12 140.153 26.12C138.617 26.12 137.425 25.664 136.577 24.752C135.729 23.824 135.305 22.576 135.305 21.008C135.305 19.904 135.537 18.88 136.001 17.936C136.465 16.976 137.105 16.216 137.921 15.656C138.753 15.096 139.689 14.816 140.729 14.816C141.657 14.816 142.401 15.096 142.961 15.656C143.521 16.2 143.801 16.944 143.801 17.888C143.801 18.992 143.401 19.944 142.601 20.744C141.817 21.528 140.473 22.152 138.569 22.616C138.953 23.352 139.601 23.72 140.513 23.72C141.169 23.72 141.705 23.568 142.121 23.264C142.553 22.96 143.049 22.448 143.609 21.728C143.801 21.488 144.017 21.368 144.257 21.368ZM140.321 17.168C139.729 17.168 139.225 17.512 138.809 18.2C138.409 18.888 138.209 19.72 138.209 20.696V20.744C139.153 20.52 139.897 20.184 140.441 19.736C140.985 19.288 141.257 18.768 141.257 18.176C141.257 17.872 141.169 17.632 140.993 17.456C140.833 17.264 140.609 17.168 140.321 17.168Z" fill="#2E2B30"/>
<path d="M6.179 14.5L2 16.75L6.179 19M6.179 14.5L11.75 17.5L17.321 14.5M6.179 14.5L2 12.25L11.75 7L21.5 12.25L17.321 14.5M6.179 19L2 21.25L11.75 26.5L21.5 21.25L17.321 19M6.179 19L11.75 22L17.321 19M17.321 14.5L21.5 16.75L17.321 19" stroke="black" stroke-width="1.5" stroke-linecap="round" stroke-linejoin="round"/>
<defs>
<filter id="filter0_d_28_55" x="-23" y="-28" width="207" height="789" filterUnits="userSpaceOnUse" color-interpolation-filters="sRGB">
<feFlood flood-opacity="0" result="BackgroundImageFix"/>
<feColorMatrix in="SourceAlpha" type="matrix" values="0 0 0 0 0 0 0 0 0 0 0 0 0 0 0 0 0 0 127 0" result="hardAlpha"/>
<feOffset dx="4" dy="3"/>
<feGaussianBlur stdDeviation="2"/>
<feComposite in2="hardAlpha" operator="out"/>
<feColorMatrix type="matrix" values="0 0 0 0 0 0 0 0 0 0 0 0 0 0 0 0 0 0 0.25 0"/>
<feBlend mode="normal" in2="BackgroundImageFix" result="effect1_dropShadow_28_55"/>
<feBlend mode="normal" in="SourceGraphic" in2="effect1_dropShadow_28_55" result="shape"/>
</filter>
</defs>
</svg>
